<?xml version="1.0" encoding="UTF-8"?>
<!DOCTYPE svg PUBLIC "-//W3C//DTD SVG 1.1//EN" "http://www.w3.org/Graphics/SVG/1.1/DTD/svg11.dtd">
<!-- Creator: CorelDRAW -->
<svg xmlns="http://www.w3.org/2000/svg" xml:space="preserve" width="5350px" height="1565px" version="1.1" style="shape-rendering:geometricPrecision; text-rendering:geometricPrecision; image-rendering:optimizeQuality; fill-rule:evenodd; clip-rule:evenodd"
viewBox="0 0 2704.87 791.38"
 xmlns:xlink="http://www.w3.org/1999/xlink"
 xmlns:xodm="http://www.corel.com/coreldraw/odm/2003">
 <defs>
  <style type="text/css">
   <![CDATA[
    .fil0 {fill:#FEFEFE}
   ]]>
  </style>
 </defs>
 <g id="Layer_x0020_1">
  <metadata id="CorelCorpID_0Corel-Layer"/>
  <g id="_1681264239248">
   <path class="fil0" d="M2109.86 478.37c0,45.42 22.67,71.83 60.04,90.56 59.86,30.01 170.42,23.13 238.21,23.13 5.07,0 21.21,-23.34 24.89,-28.25 8.02,-10.72 15.61,-20.35 23.62,-31.02 15.73,-20.98 31.68,-41.14 47.47,-61.78l58.2 -76.16c5.95,-7.95 32.92,-39.79 34.8,-47.88l-169.89 -0.1c-12.21,0.04 -23.83,11.87 -38.3,22.23l-59.48 51.25c-7.44,6.26 -20.55,16.29 -24.67,24.06l82.69 0c-1.99,7.44 -30.74,39.25 -32.49,45.78 -43.21,0 -60.78,8.25 -80.96,-22.4 -15.07,-22.9 -15.1,-53.62 -0.18,-79.42 14.98,-25.91 49.34,-64.17 76.69,-78.34 13.14,-6.8 21.17,-10.42 41.35,-10.32l155.04 0.01c7.89,0 17.54,0.52 25.19,0.09 5.62,-0.31 6.08,-1.06 9.73,-3.56 21,-14.41 47.81,-33.3 67.3,-49.34l42.87 -35.38c8.17,-7.93 11.5,-8.47 12.89,-13.68 -24.68,0 -297.64,-2.09 -325.72,2.04 -32.23,4.75 -56.42,16.5 -80.32,28.94 -31.34,16.31 -69.16,44.82 -94.11,69.78 -28.37,28.4 -52.41,56.39 -70.76,93.13 -9.95,19.9 -24.1,58 -24.1,86.63z"/>
   <path class="fil0" d="M902.12 408.98zm0 0zm0 0c1.43,-5.35 53.65,-73.03 59.47,-80.79l20.25 -26.99 152.08 0c2.32,3.46 6.87,10.07 7.34,14.97 0.95,9.84 -3.33,6.88 -13.01,19.22 -4.87,6.21 -12.56,13.01 -20.78,13.18l-110.88 -0.14c-6.17,0.65 -9.91,4.66 -14.45,7.69 -9.21,6.16 -17.36,11.57 -26.58,17.72l-53.44 35.14zm-280.53 183.08l143.21 0 104.83 -141.74c34.52,0 206.28,2.35 232.45,-2.31 10.26,-1.82 21.75,-4.39 30.94,-7.45 34.5,-11.51 74.13,-32.93 99.45,-57.05 6.54,-6.23 12.77,-9.88 20.61,-19.26 6.23,-7.45 11.53,-13.31 16.99,-21.4 22.75,-33.7 46.21,-97.26 16.83,-132.62 -8.53,-10.26 -24.13,-12.38 -42.25,-12.38l-324.82 0c-4.45,0 -8.37,6.66 -10.76,9.9l-268.71 358.79c-6.6,8.79 -12.85,16.67 -18.77,25.52z"/>
   <path class="fil0" d="M1401.16 408.98zm1.48 -1.48l-1.48 1.48zm1.48 -1.48l-1.48 1.48 1.48 -1.48zm0 0c1.2,-4.5 6.18,-9.71 8.86,-13.29l49.35 -65.8c7.07,-9.44 13.73,-17.78 20.04,-27.21l153.55 0c3.04,13.04 13.83,15.77 -0.62,27.43 -6.55,5.29 -15.51,18.91 -24.43,19.86 -15.81,1.69 -86.5,-1.26 -110.85,-0.11 -7.81,0.36 -10.43,3.06 -15.6,6.55 -9.37,6.34 -17.13,11.44 -26.56,17.73 -7.82,5.21 -48.69,33.49 -53.74,34.84zm-280.53 184.56l141.74 0 25.5 -35.03c8.84,-11.83 75.02,-98.57 79.33,-106.71 34.15,0 205.37,2.21 231.19,-2.09 42.5,-7.07 75.11,-23.46 109.58,-46.93 15.79,-10.75 28.66,-22.93 42.02,-36.22 5.73,-5.7 12.45,-14.55 17.05,-21.34 21.64,-31.92 48.85,-99.34 16.92,-134.49 -7.81,-8.6 -22.77,-11.4 -38.79,-11.4l-327.77 0c-6.26,0 -34.76,42.39 -38.39,47.24 -12.49,16.67 -24.59,32.8 -37.33,49.78l-212.4 283.69c-3.27,4.34 -7.16,7.9 -8.65,13.5z"/>
   <path class="fil0" d="M1621.15 592.06l308.58 0c19.12,0.06 14.81,1.07 26.89,-7.07 7.06,-4.76 12.63,-9.27 19.77,-14.19l49.12 -37.99c4.12,-3.25 5.62,-4.95 9.49,-8.22 3.86,-3.27 5,-3.71 8.78,-7.47 3.88,-3.86 5.82,-4.57 9.62,-8.09 3.32,-3.07 5.57,-5.66 8.85,-8.87 3.58,-3.52 6.43,-5.06 7.75,-9.97l-231.81 0c8.51,-12.71 18.13,-23.78 26.87,-36.62 18.98,-27.9 61.02,-81.58 82.81,-110.61l103.07 -137.77c2.08,-2.64 7.57,-7.34 -0.14,-7.34l-132.88 0c-6.26,0 -34.75,42.39 -38.39,47.24l-221.89 296.35c-6.48,8.63 -11.97,15.62 -18.18,24.64 -3.3,4.79 -6.25,8.43 -9.45,12.69 -2.68,3.57 -7.65,8.79 -8.86,13.29z"/>
   <path class="fil0" d="M442.94 470.99l-55.88 79.95c-27.99,37.71 -56.96,80.91 -85.24,120l-70.29 99.5c-4.79,7.06 -10.61,13.61 -14.49,20.94l143.22 0 153.55 -221.46c4.84,-6.82 9.92,-13.87 14.76,-20.68l56.11 -81.2c-3.28,-2.2 -4.1,-3.63 -7.18,-6.12l-109.11 -100.54c-5.67,-5.75 -8.44,-8.15 -14.68,-13.37l-21.39 -19.95c-4.45,-4.08 -2.29,-4.41 -9.94,-4.83 -8.57,-0.46 -19.33,0.11 -28.17,0.11 -37.4,0 -74.8,0 -112.21,0 1.76,6.6 32.54,30.28 39.52,37.26l101.11 90.83c6.83,6.99 14.93,11.53 20.31,19.56z"/>
   <path class="fil0" d="M0 324.82c6.4,1.71 9.96,7.76 14.37,12.2l87.51 80.82c5.59,4.27 9.11,8.63 14.36,13.69 3.27,3.15 4.09,3.22 7.35,5.94l28.01 26.61c6.99,7.01 20.43,3.96 38.86,3.96 37.41,0 74.81,0 112.21,0 -4.68,-7 -125.37,-113.35 -142.09,-128.1l-20.32 -19.55c21.74,-32.46 47.53,-66.56 70.28,-99.51l155.62 -220.88 -139.56 0c-2.19,0.49 -3.83,1.8 -6.09,4.94 -3.5,4.86 -5.35,8.38 -8.96,13.19 -27.22,36.24 -60.9,90.11 -88.59,126.98 -3.3,4.4 -5.25,7.58 -8.38,12.29l-80.21 114.68c-3.3,4.4 -5.25,7.59 -8.38,12.29 -5.37,8.1 -25.36,32.9 -25.99,40.45z"/>
  </g>
 </g>
</svg>
