<?xml version="1.0" encoding="UTF-8"?>
<!DOCTYPE svg PUBLIC "-//W3C//DTD SVG 1.1//EN" "http://www.w3.org/Graphics/SVG/1.1/DTD/svg11.dtd">
<!-- Creator: CorelDRAW -->
<svg xmlns="http://www.w3.org/2000/svg" xml:space="preserve" width="113.972mm" height="153.353mm" version="1.1" style="shape-rendering:geometricPrecision; text-rendering:geometricPrecision; image-rendering:optimizeQuality; fill-rule:evenodd; clip-rule:evenodd"
viewBox="0 0 11832.53 15920.97"
 xmlns:xlink="http://www.w3.org/1999/xlink"
 xmlns:xodm="http://www.corel.com/coreldraw/odm/2003">
 <defs>
  <style type="text/css">
   <![CDATA[
    .fil1 {fill:none;fill-rule:nonzero}
    .fil3 {fill:#231F20}
    .fil2 {fill:#231F20;fill-rule:nonzero}
    .fil0 {fill:red;fill-rule:nonzero}
   ]]>
  </style>
 </defs>
 <g id="Layer_x0020_1">
  <metadata id="CorelCorpID_0Corel-Layer"/>
  <path class="fil0" d="M3652.86 4314.88c214.54,448.36 429.09,896.74 643.63,1345.12 -168.16,47.06 -399.34,124.24 -658.09,253.11 -959.01,477.63 -1452.25,1244.82 -1677.77,1605.45 -193.21,308.96 -701.83,1145.13 -737.65,2321.4 -62.88,2065.76 1386.06,3419.78 1670.55,3673.75 270.23,241.25 955,837.73 2046.59,1084.77 1165.15,263.69 2139.78,-18.76 2639.61,-216.95 1031.95,-409.2 1622.73,-1086.85 1916.42,-1431.9 235.34,-276.47 626.47,-744.43 889.51,-1468.05 550.73,-1515.03 70.11,-2858.03 -43.4,-3153.07 -83.15,-216.13 -384.68,-949.53 -1099.23,-1648.85 -574.41,-562.15 -1167.77,-859.61 -1540.37,-1012.45 233.82,-407.39 467.65,-814.78 701.48,-1222.17 412.26,257.63 982.09,655.56 1583.76,1229.41 151.91,144.88 613.23,584.88 940.14,1034.14 1199.65,1648.72 884.3,3828.26 817.18,4237.82 -84.75,517.18 -318.2,1832.05 -1395.73,3030.12 -157.21,174.8 -946.76,1030.19 -2314.18,1540.37 -460.58,171.84 -2086.18,750.67 -3999.17,108.48 -1448.64,-486.3 -2317.52,-1422.83 -2690.23,-1887.5 -157.38,-196.22 -755.33,-967.86 -1092,-2162.31 -133.29,-472.9 -469.02,-1725.41 -50.62,-3247.08 356.74,-1297.35 1074.17,-2108.47 1417.44,-2487.73 738.98,-816.49 1526.1,-1278.56 2032.13,-1525.91z"/>
  <path class="fil1" d="M3652.86 4314.88c214.54,448.36 429.09,896.74 643.63,1345.12 -168.16,47.06 -399.34,124.24 -658.09,253.11 -959.01,477.63 -1452.25,1244.82 -1677.77,1605.45 -193.21,308.96 -701.83,1145.13 -737.65,2321.4 -62.88,2065.76 1386.06,3419.78 1670.55,3673.75 270.23,241.25 955,837.73 2046.59,1084.77 1165.15,263.69 2139.78,-18.76 2639.61,-216.95 1031.95,-409.2 1622.73,-1086.85 1916.42,-1431.9 235.34,-276.47 626.47,-744.43 889.51,-1468.05 550.73,-1515.03 70.11,-2858.03 -43.4,-3153.07 -83.15,-216.13 -384.68,-949.53 -1099.23,-1648.85 -574.41,-562.15 -1167.77,-859.61 -1540.37,-1012.45 233.82,-407.39 467.65,-814.78 701.48,-1222.17 412.26,257.63 982.09,655.56 1583.76,1229.41 151.91,144.88 613.23,584.88 940.14,1034.14 1199.65,1648.72 884.3,3828.26 817.18,4237.82 -84.75,517.18 -318.2,1832.05 -1395.73,3030.12 -157.21,174.8 -946.76,1030.19 -2314.18,1540.37 -460.58,171.84 -2086.18,750.67 -3999.17,108.48 -1448.64,-486.3 -2317.52,-1422.83 -2690.23,-1887.5 -157.38,-196.22 -755.33,-967.86 -1092,-2162.31 -133.29,-472.9 -469.02,-1725.41 -50.62,-3247.08 356.74,-1297.35 1074.17,-2108.47 1417.44,-2487.73 738.98,-816.49 1526.1,-1278.56 2032.13,-1525.91z"/>
  <path class="fil2" d="M6567.28 22.81c-119.44,-18.46 -1193.58,-165.94 -1970.67,618.32 -168.59,170.14 -653.92,718.42 -621.93,1533.14 40.08,1020.99 855.47,1578.59 940.13,1634.39 4.83,212.12 9.64,424.27 14.47,636.39 -86.79,2.41 -173.57,4.83 -260.35,7.24 2.41,77.14 4.82,154.28 7.23,231.41 896.75,-12.05 1793.49,-24.11 2690.23,-36.16 -2.41,-55.45 -4.83,-110.88 -7.24,-166.33 -77.14,-2.41 -154.28,-4.83 -231.41,-7.24l0 -621.93c119.48,-65.99 282.96,-172.81 441.14,-339.89 470.07,-496.52 624.99,-1241.7 470.06,-1887.5 -174.28,-726.51 -693.17,-1129.07 -853.34,-1243.87l-303.73 596.63c109.4,94.77 219.11,191.17 329.05,289.27 35.12,31.34 70.07,62.68 104.86,94.01 -64.79,71.28 -129.58,142.55 -194.36,213.84 -48.95,56.82 -98.93,118.08 -149.15,183.92 -58.74,76.99 -111.6,152.1 -159.1,224.19 -63.88,72.31 -127.76,144.63 -191.64,216.95l-130.17 65.08c10.84,-48.21 21.69,-96.42 32.54,-144.64 48.04,-111.42 96.91,-225.58 151.87,-339.88 60.27,-125.35 120.53,-250.71 180.8,-376.05 -93.12,-48.54 -191.96,-97.05 -296.51,-144.64 -93.01,-42.34 -183.58,-80.77 -271.2,-115.71 44.6,-180.79 89.19,-361.59 133.79,-542.38 48.21,-192.85 96.42,-385.69 144.64,-578.54z"/>
  <path class="fil2" d="M5001.59 4795.79c667.74,-19.29 1335.48,-38.57 2003.21,-57.86 -24.54,237.94 -60.71,576.48 -108.47,983.52 -8.95,76.22 -34.34,381.51 -60.4,774.81 -12.39,186.95 -24.83,399.41 -55.31,700.47 -34.29,338.78 -43.56,760.77 -144.63,853.35 -55.89,51.19 -122.94,65.08 -122.94,65.08 -83.7,19.5 -155.82,-7.25 -188.03,-21.69 15.93,-11.96 88.22,-68.85 94.02,-159.1 6.85,-106.77 -84.62,-178.22 -115.71,-202.49 -131.14,-102.41 -320.73,-88.8 -448.38,-21.7 -37.48,19.7 -110.53,58.11 -151.87,144.64 -57.07,119.46 -9.46,238.01 0,260.34 -130.33,32.74 -259.01,-13.23 -318.2,-108.47 -48.18,-77.52 -113.44,-1048.24 -137.4,-1308.95 -42.44,-461.89 -57.11,-652.39 -94.02,-947.36 -51.65,-412.86 -111.07,-744.56 -151.87,-954.6z"/>
  <path class="fil2" d="M5818.79 7934.39c27.24,-27.75 97.65,-99.5 202.49,-101.24 135.47,-2.25 221.49,114.17 238.65,137.4 43.18,58.45 54.04,112.1 72.32,202.49 33.71,166.68 13.24,297.92 7.24,332.66 -23.41,135.6 -36.43,210.98 -101.26,267.58 -107.4,93.78 -301.03,87.04 -412.2,-7.24 -71.7,-60.79 -89.46,-141.33 -115.71,-260.35 -37.12,-168.21 -9.54,-299.69 0,-339.88 18.64,-78.54 37.84,-159.46 108.47,-231.42z"/>
  <path class="fil2" d="M6097.21 8639.49c59.55,21.13 73.31,106.09 79.56,144.64 13.29,82.1 -11.44,150.75 -28.93,188.02l-347.12 759.35c-60.73,108.92 -14.22,229.6 65.08,260.34 68.85,26.7 163.7,-13.89 188.03,-79.55 27.52,-74.27 -32.3,-188.53 -159.1,-216.95 -175.48,-20.89 -421.78,-39.98 -715.95,-28.93 -277.72,10.44 -627.95,25.87 -1026.91,166.34 -95.12,33.49 -916.76,329.5 -889.51,650.85 10.1,119.06 126.16,198.38 282.04,303.74 389.7,263.4 646.19,161.9 875.05,390.52 7.38,7.37 186.18,190.9 202.49,448.36 30.76,485.55 -537.92,897.48 -990.76,1041.38 -298.47,94.85 -904.53,185.62 -1120.93,-137.4 -108.08,-161.35 -102.83,-401.83 -14.46,-578.54 14.64,-29.27 125.76,-243.2 354.36,-296.51 67.2,-15.67 205.37,-31.63 231.42,21.7 39.42,80.71 -238.38,196.22 -267.57,433.91 -17.93,145.94 59.75,322.68 188.02,390.52 144.3,76.3 342.08,-31.09 737.65,-245.89 363.06,-197.13 437.64,-299.22 477.3,-368.82 38.22,-67.07 144.18,-253.01 79.55,-419.45 -72.88,-187.68 -295.08,-176.39 -715.95,-390.52 -333.48,-169.66 -540.3,-274.88 -578.54,-455.6 -68.06,-321.66 441.67,-675.86 593.02,-781.03 382.96,-266.11 759.58,-342.14 983.52,-383.28 317.84,-58.4 584.1,-50.64 752.1,-36.16 279.52,24.1 510.69,86.11 679.79,144.64 187.02,55.39 294.21,242.46 253.11,412.2 -38.78,160.2 -198.86,260.39 -339.89,253.11 -198.9,-10.25 -342.84,-233.33 -339.89,-404.98 3.18,-184.36 161.43,-201.12 274.81,-542.38 51.18,-154.06 76.77,-231.08 79.56,-332.66 3.39,-124.33 -23.82,-214.87 36.15,-274.81 30.84,-30.82 81.91,-50.72 122.94,-36.16z"/>
  <path class="fil1" d="M6097.21 8639.49c59.55,21.13 73.31,106.09 79.56,144.64 13.29,82.1 -11.44,150.75 -28.93,188.02l-347.12 759.35c-60.73,108.92 -14.22,229.6 65.08,260.34 68.85,26.7 163.7,-13.89 188.03,-79.55 27.52,-74.27 -32.3,-188.53 -159.1,-216.95 -175.48,-20.89 -421.78,-39.98 -715.95,-28.93 -277.72,10.44 -627.95,25.87 -1026.91,166.34 -95.12,33.49 -916.76,329.5 -889.51,650.85 10.1,119.06 126.16,198.38 282.04,303.74 389.7,263.4 646.19,161.9 875.05,390.52 7.38,7.37 186.18,190.9 202.49,448.36 30.76,485.55 -537.92,897.48 -990.76,1041.38 -298.47,94.85 -904.53,185.62 -1120.93,-137.4 -108.08,-161.35 -102.83,-401.83 -14.46,-578.54 14.64,-29.27 125.76,-243.2 354.36,-296.51 67.2,-15.67 205.37,-31.63 231.42,21.7 39.42,80.71 -238.38,196.22 -267.57,433.91 -17.93,145.94 59.75,322.68 188.02,390.52 144.3,76.3 342.08,-31.09 737.65,-245.89 363.06,-197.13 437.64,-299.22 477.3,-368.82 38.22,-67.07 144.18,-253.01 79.55,-419.45 -72.88,-187.68 -295.08,-176.39 -715.95,-390.52 -333.48,-169.66 -540.3,-274.88 -578.54,-455.6 -68.06,-321.66 441.67,-675.86 593.02,-781.03 382.96,-266.11 759.58,-342.14 983.52,-383.28 317.84,-58.4 584.1,-50.64 752.1,-36.16 279.52,24.1 510.69,86.11 679.79,144.64 187.02,55.39 294.21,242.46 253.11,412.2 -38.78,160.2 -198.86,260.39 -339.89,253.11 -198.9,-10.25 -342.84,-233.33 -339.89,-404.98 3.18,-184.36 161.43,-201.12 274.81,-542.38 51.18,-154.06 76.77,-231.08 79.56,-332.66 3.39,-124.33 -23.82,-214.87 36.15,-274.81 30.84,-30.82 81.91,-50.72 122.94,-36.16z"/>
  <path class="fil2" d="M8281.22 9811.04c43.39,89.19 86.77,178.39 130.17,267.57 -28.27,53.93 -71.65,132.69 -130.17,224.19 -127.94,200.01 -235.85,316.41 -397.75,499 -476.87,537.81 -536.31,650.93 -499,737.64 27.29,63.43 94.29,84.7 101.24,86.78 143.31,42.92 351.04,-134.07 535.16,-448.36 40.98,24.1 81.96,48.21 122.94,72.31 -20.57,58.84 -50.33,128.51 -94.02,202.49 -57.41,97.24 -120.69,171.15 -173.57,224.19 -196.44,152.69 -320.27,173.34 -383.28,173.57 -6.3,0.02 -11.97,-0.13 -11.97,-0.13 -100.92,-2.83 -216.43,-47.83 -270.07,-115.57 -88.71,-112.03 -15.81,-295.94 21.69,-390.52 59.01,-148.83 136.49,-225.34 231.42,-339.89 70.82,-85.46 30.87,-46.72 347.12,-513.46 111.03,-163.86 269.75,-395.61 470.07,-679.79z"/>
  <path class="fil1" d="M8281.22 9811.04c43.39,89.19 86.77,178.39 130.17,267.57 -28.27,53.93 -71.65,132.69 -130.17,224.19 -127.94,200.01 -235.85,316.41 -397.75,499 -476.87,537.81 -536.31,650.93 -499,737.64 27.29,63.43 94.29,84.7 101.24,86.78 143.31,42.92 351.04,-134.07 535.16,-448.36 40.98,24.1 81.96,48.21 122.94,72.31 -20.57,58.84 -50.33,128.51 -94.02,202.49 -57.41,97.24 -120.69,171.15 -173.57,224.19 -196.44,152.69 -320.27,173.34 -383.28,173.57 -6.3,0.02 -11.97,-0.13 -11.97,-0.13 -100.92,-2.83 -216.43,-47.83 -270.07,-115.57 -88.71,-112.03 -15.81,-295.94 21.69,-390.52 59.01,-148.83 136.49,-225.34 231.42,-339.89 70.82,-85.46 30.87,-46.72 347.12,-513.46 111.03,-163.86 269.75,-395.61 470.07,-679.79z"/>
  <path class="fil2" d="M6690.21 10664.39c2.41,53.03 4.83,106.07 7.24,159.09l2039.37 0c-4.83,-57.85 -9.64,-115.71 -14.46,-173.55 -677.38,4.82 -1354.76,9.63 -2032.14,14.46z"/>
  <path class="fil1" d="M6690.21 10664.39c2.41,53.03 4.83,106.07 7.24,159.09l2039.37 0c-4.83,-57.85 -9.64,-115.71 -14.46,-173.55 -677.38,4.82 -1354.76,9.63 -2032.14,14.46z"/>
  <path class="fil2" d="M4701.47 11474.35c24.02,-266.58 256.55,-413.9 289.27,-433.9l151.87 -108.48c22.28,6.18 121.96,36.35 166.34,130.17 29.19,61.75 20.46,121.5 14.46,159.1 -21.73,136.17 -113.14,220.55 -101.24,231.41 15,13.7 129.47,-148.87 253.11,-130.17 59.84,9.04 104.66,57.96 122.94,101.24 62.1,147.09 -136.54,337.61 -180.8,318.2 -32.03,-14.04 22.98,-135.38 -28.92,-173.55 -71,-52.25 -242.54,124.44 -303.73,79.55 -72.35,-53.07 92.6,-354.88 43.39,-383.29 -31.8,-18.34 -138.95,85.54 -202.49,180.8 -25.87,38.8 -30.22,54.74 -65.08,108.48 -46.51,71.68 -91.81,125.08 -122.94,159.09 -21.4,-53.87 -45.24,-137.75 -36.16,-238.65z"/>
  <path class="fil1" d="M4701.47 11474.35c24.02,-266.58 256.55,-413.9 289.27,-433.9l151.87 -108.48c22.28,6.18 121.96,36.35 166.34,130.17 29.19,61.75 20.46,121.5 14.46,159.1 -21.73,136.17 -113.14,220.55 -101.24,231.41 15,13.7 129.47,-148.87 253.11,-130.17 59.84,9.04 104.66,57.96 122.94,101.24 62.1,147.09 -136.54,337.61 -180.8,318.2 -32.03,-14.04 22.98,-135.38 -28.92,-173.55 -71,-52.25 -242.54,124.44 -303.73,79.55 -72.35,-53.07 92.6,-354.88 43.39,-383.29 -31.8,-18.34 -138.95,85.54 -202.49,180.8 -25.87,38.8 -30.22,54.74 -65.08,108.48 -46.51,71.68 -91.81,125.08 -122.94,159.09 -21.4,-53.87 -45.24,-137.75 -36.16,-238.65z"/>
  <path class="fil2" d="M6278 11054.91c2.4,2.95 33.49,42.33 21.7,79.55 -11.09,35.01 -52.96,45.58 -101.24,65.08 0,0 -101.92,41.2 -209.72,130.18 -80.16,66.15 -115.19,128.43 -130.18,159.09 -4.81,9.84 -49.25,100.73 -28.92,115.71 23.21,17.12 119.39,-73.31 195.25,-144.63 148.85,-139.95 195.71,-215.95 245.89,-202.49 39.21,10.52 54.59,68.74 65.08,108.47 47.28,178.94 -59.21,389.32 -115.71,383.29 -8.89,-0.94 -14.67,-7.05 -21.7,-14.46 -49.75,-52.48 -6.45,-147.97 -28.92,-159.1 -16.12,-7.98 -49.89,35.53 -72.32,57.86 -107.77,107.28 -350.13,119.69 -419.44,28.92 -77.24,-101.13 70.46,-317.13 115.71,-383.28 121.76,-178.06 296.05,-282.79 397.75,-267.58 16.04,2.41 58.7,8.79 86.77,43.4z"/>
  <path class="fil1" d="M6278 11054.91c2.4,2.95 33.49,42.33 21.7,79.55 -11.09,35.01 -52.96,45.58 -101.24,65.08 0,0 -101.92,41.2 -209.72,130.18 -80.16,66.15 -115.19,128.43 -130.18,159.09 -4.81,9.84 -49.25,100.73 -28.92,115.71 23.21,17.12 119.39,-73.31 195.25,-144.63 148.85,-139.95 195.71,-215.95 245.89,-202.49 39.21,10.52 54.59,68.74 65.08,108.47 47.28,178.94 -59.21,389.32 -115.71,383.29 -8.89,-0.94 -14.67,-7.05 -21.7,-14.46 -49.75,-52.48 -6.45,-147.97 -28.92,-159.1 -16.12,-7.98 -49.89,35.53 -72.32,57.86 -107.77,107.28 -350.13,119.69 -419.44,28.92 -77.24,-101.13 70.46,-317.13 115.71,-383.28 121.76,-178.06 296.05,-282.79 397.75,-267.58 16.04,2.41 58.7,8.79 86.77,43.4z"/>
  <path class="fil2" d="M5793.47 11329.72c-51.02,15.31 -76.98,43.75 -130.17,94.01 -91.39,86.35 -111.77,94.13 -166.34,159.1 -36.9,43.94 -55.48,66.07 -50.61,72.31 8.26,10.63 83.97,-24.95 376.04,-224.18 35.22,-45.52 49.64,-85.42 36.16,-101.24 -13.25,-15.56 -50.5,-4.38 -65.08,0z"/>
  <path class="fil1" d="M5793.47 11329.72c-51.02,15.31 -76.98,43.75 -130.17,94.01 -91.39,86.35 -111.77,94.13 -166.34,159.1 -36.9,43.94 -55.48,66.07 -50.61,72.31 8.26,10.63 83.97,-24.95 376.04,-224.18 35.22,-45.52 49.64,-85.42 36.16,-101.24 -13.25,-15.56 -50.5,-4.38 -65.08,0z"/>
  <path class="fil2" d="M6863.78 10946.43c0,0 -43.68,30.93 -78.52,62.83 -492.75,451.25 -420.48,674.82 -420.48,674.82 14.09,43.54 49.57,105.88 94.02,108.47 68.69,4.03 113.62,-137.75 289.27,-404.98 34.14,-51.94 77.27,-147.03 173.57,-188.03 12.32,-5.24 60.89,-25.92 79.55,-7.23 28.11,28.17 -52.28,105.01 -28.92,166.33 31.71,83.22 245.49,113.89 376.05,28.92 52.16,-33.94 97.66,-90.64 86.77,-108.47 -7.17,-11.76 -34.83,0.02 -108.47,7.23 -79.48,7.79 -126.62,11.78 -166.33,-14.46 -31.65,-20.92 -45.23,-52.22 -50.62,-65.08 -33.33,-79.56 25.25,-124.04 0,-188.03 -29.71,-75.26 -153.35,-121.55 -224.19,-86.78 -9.2,4.52 -16.37,9.83 -21.7,14.46z"/>
  <path class="fil1" d="M6863.78 10946.43c0,0 -43.68,30.93 -78.52,62.83 -492.75,451.25 -420.48,674.82 -420.48,674.82 14.09,43.54 49.57,105.88 94.02,108.47 68.69,4.03 113.62,-137.75 289.27,-404.98 34.14,-51.94 77.27,-147.03 173.57,-188.03 12.32,-5.24 60.89,-25.92 79.55,-7.23 28.11,28.17 -52.28,105.01 -28.92,166.33 31.71,83.22 245.49,113.89 376.05,28.92 52.16,-33.94 97.66,-90.64 86.77,-108.47 -7.17,-11.76 -34.83,0.02 -108.47,7.23 -79.48,7.79 -126.62,11.78 -166.33,-14.46 -31.65,-20.92 -45.23,-52.22 -50.62,-65.08 -33.33,-79.56 25.25,-124.04 0,-188.03 -29.71,-75.26 -153.35,-121.55 -224.19,-86.78 -9.2,4.52 -16.37,9.83 -21.7,14.46z"/>
  <path class="fil2" d="M6617.9 11221.24c-47.6,-40.29 -435.31,315.09 -412.21,347.13 8.7,12.07 75.52,-22.14 173.57,-72.32 89.92,-46.03 135.65,-69.97 173.55,-115.71 46.15,-55.67 84.99,-142.26 65.09,-159.1z"/>
  <path class="fil1" d="M6617.9 11221.24c-47.6,-40.29 -435.31,315.09 -412.21,347.13 8.7,12.07 75.52,-22.14 173.57,-72.32 89.92,-46.03 135.65,-69.97 173.55,-115.71 46.15,-55.67 84.99,-142.26 65.09,-159.1z"/>
  <path class="fil3" d="M5354.35 12035.66l2710.71 0c261.45,0 475.36,213.91 475.36,475.36 0,261.45 -213.91,475.36 -475.36,475.36l-2710.71 0c-261.44,0 -475.35,-213.91 -475.35,-475.36 0,-261.45 213.91,-475.36 475.35,-475.36zm-215.26 773.19l0 -165.93 48.71 0c25.88,45.85 52.38,79.04 80.09,99.56 27.7,20.51 59.06,30.91 94.38,30.91 27.4,0 49.63,-6.08 66.98,-17.99 17.35,-11.91 25.88,-27.36 25.88,-46.36 0,-29.14 -36.85,-55.49 -110.53,-78.8 -7.61,-2.27 -13.7,-4.05 -17.96,-5.58 -73.68,-23.56 -124.83,-47.37 -153.76,-71.7 -28.93,-24.31 -43.24,-54.46 -43.24,-90.7 0,-41.55 17.66,-75.5 52.68,-101.85 35.01,-26.35 80.99,-39.52 137.62,-39.52 29.53,0 60.28,4.82 92.86,14.7 32.58,9.87 50.24,14.94 52.98,14.94 7.91,0 14.62,-2.02 20.1,-6.33 5.47,-4.31 9.13,-10.13 10.65,-17.47l45.37 0 0 141.62 -47.5 0c-18.57,-34.71 -40.8,-61.32 -67.3,-79.3 -26.48,-17.99 -55.71,-27.11 -88.29,-27.11 -28.32,0 -51.15,5.32 -68.51,15.96 -17.35,10.64 -25.88,24.57 -25.88,41.55 0,26.6 37.46,50.92 112.05,73.47 8.82,2.53 15.52,4.56 20.09,6.08 78.56,23.81 132.45,47.88 161.38,71.95 28.92,24.07 43.53,54.97 43.53,92.47 0,46.37 -17.35,83.1 -52.37,110.71 -35.02,27.62 -81.6,41.3 -140.36,41.3 -36.53,0 -73.68,-5.32 -111.73,-16.22 -38.07,-10.89 -57.86,-16.22 -59.38,-16.22 -7,0 -13.39,2.28 -19.79,6.84 -6.38,4.56 -11.87,10.9 -17.05,19l-41.71 0zm568.45 -432.46l-64.55 0 0 -41.05c44.76,-11.4 81.3,-31.91 109.31,-61.81 27.7,-29.64 49.01,-70.43 63.94,-122.37l57.54 0 0 184.19 126.06 0 0 41.05 -126.06 0 0 270.07c0,30.66 3.04,52.95 9.14,66.88 6.09,14.19 15.53,21.28 28.62,21.28 14.62,0 26.48,-9.36 35.92,-28.37 9.45,-19 15.53,-46.86 18.57,-83.85l50.85 -0.26 0 6.59c0,59.79 -14.62,105.9 -43.84,138.08 -29.54,32.42 -71.55,48.64 -126.06,48.64 -49.93,0 -85.56,-12.42 -107.16,-37.5 -21.63,-25.08 -32.28,-67.14 -32.28,-126.16l0 -275.39zm737.43 54.46c0,-22.04 -3.97,-36.48 -11.58,-43.06 -7.61,-6.34 -24.05,-9.88 -49.32,-10.64l0 -41.81c42.63,-2.02 82.52,-4.31 119.96,-6.58 37.15,-2.28 73.08,-5.07 107.79,-7.86l0 384.59c0,22.04 3.96,36.48 11.57,42.82 7.61,6.58 24.05,10.13 49.33,10.89l0.3 41.81c-41.11,2.02 -79.17,4.31 -113.88,6.58 -35.01,2.28 -67.89,5.07 -98.95,7.86l0 -99.56c-28.01,33.18 -58.15,58.01 -90.13,74.48 -32.27,16.71 -66.67,25.08 -103.52,25.08 -52.07,0 -89.51,-14.95 -112.34,-45.1 -22.84,-29.9 -34.41,-79.55 -34.41,-149.22l0 -190.27c0,-22.04 -3.97,-36.48 -11.58,-43.06 -7.61,-6.34 -24.36,-9.88 -49.63,-10.64l0 -41.81c42.93,-2.02 82.82,-4.31 120.26,-6.58 37.15,-2.28 72.77,-5.07 107.17,-7.86l0 326.57c0,35.72 4.27,60.29 13.09,73.21 8.52,13.17 23.44,19.76 45.06,19.76 31.36,0 56.03,-13.16 73.99,-39.51 17.96,-26.35 26.8,-62.58 26.8,-108.95l0 -161.13zm574.54 -298.44c44.14,-0.26 88.29,-2.28 132.44,-5.83 44.14,-3.29 87.69,-8.36 131.23,-14.69l0 593.6c0,21.79 3.65,35.97 11.26,42.31 7.61,6.33 23.14,9.63 46.88,9.63l14.62 0 0 43.57c-39.27,0 -76.72,1.78 -112.04,5.07 -35.32,3.29 -68.81,8.62 -100.18,15.46l0 -107.42c-23.14,34.2 -49.32,59.79 -78.55,76.26 -29.24,16.71 -62.73,25.08 -100.79,25.08 -69.71,0 -126.05,-22.55 -168.98,-67.65 -42.93,-45.09 -64.54,-104.63 -64.54,-178.86 0,-73.72 21.92,-133.52 65.46,-179.37 43.54,-45.86 99.56,-68.67 168.06,-68.67 35.63,0 66.68,6.08 93.48,18.24 26.8,12.42 46.58,29.64 59.06,51.68l0 -162.9c0,-21.02 -5.78,-35.46 -17.35,-42.82 -11.88,-7.34 -35.32,-10.89 -70.64,-10.89l-10.05 0 0.61 -41.8zm-3.65 627.55c32.58,0 56.93,-16.22 73.68,-48.39 16.44,-32.18 24.66,-79.81 24.66,-142.64 0,-63.09 -8.21,-110.97 -24.66,-143.4 -16.75,-32.18 -41.1,-48.39 -73.68,-48.39 -32.58,0 -57.55,16.21 -74.29,48.9 -17.05,32.68 -25.57,80.3 -25.57,142.89 0,62.06 8.52,109.45 25.57,142.13 16.75,32.68 41.71,48.9 74.29,48.9zm418.95 -578.15c0,-19.51 8.82,-35.97 26.48,-48.9 17.66,-12.92 39.89,-19.25 66.98,-19.25 26.8,0 49.32,6.58 67.29,19.51 17.97,13.17 27.11,29.38 27.11,48.64 0,19.51 -8.53,35.22 -25.88,47.37 -17.36,12.42 -40.19,18.5 -68.51,18.5 -28.01,0 -50.54,-6.08 -67.59,-18.5 -17.36,-12.16 -25.88,-27.87 -25.88,-47.37zm-34.41 619.19l0 -41.04c22.23,-2.79 37.15,-8.37 44.76,-16.22 7.61,-7.86 11.26,-23.31 11.26,-46.61l0 -266.28c0,-21.78 -3.96,-35.97 -11.88,-42.82 -7.91,-6.59 -24.05,-10.13 -48.1,-10.89l0 -41.81c35.62,-1.52 72.77,-3.54 111.43,-5.82 38.36,-2.28 77.95,-5.07 118.44,-8.62l0 376.23c0,23.31 3.65,38.76 11.26,46.61 7.62,7.85 22.23,13.42 44.46,16.22l0 41.04 -281.63 0zm615.64 -27.62c31.97,0 54.49,-14.19 67.29,-42.57 12.79,-28.11 19.19,-82.08 19.19,-161.89 0,-80.31 -6.4,-134.79 -19.19,-163.41 -12.79,-28.37 -35.32,-42.57 -67.29,-42.57 -32.58,0 -55.42,14.19 -67.9,42.57 -12.79,28.62 -19.19,83.1 -19.19,163.41 0,79.81 6.4,133.77 19.19,161.89 12.48,28.37 35.32,42.57 67.9,42.57zm0 42.06c-36.53,0 -70.64,-5.32 -102,-15.71 -31.35,-10.39 -59.68,-25.84 -84.33,-46.37 -28.32,-23.31 -49.64,-50.66 -64.54,-81.83 -14.92,-31.17 -22.54,-65.36 -22.54,-102.6 0,-73.22 25.58,-133.01 76.42,-179.12 50.85,-45.86 116.31,-68.92 197,-68.92 80.38,0 146.15,23.06 197.3,68.92 50.84,46.11 76.42,105.9 76.42,179.12 0,36.73 -7.61,70.94 -22.53,102.36 -14.92,31.42 -36.85,58.77 -65.77,82.08 -25.27,20.77 -53.28,36.23 -84.34,46.61 -31.05,10.39 -64.85,15.46 -101.08,15.46z"/>
 </g>
</svg>
